<?xml version="1.0" standalone="no"?>
<!DOCTYPE svg PUBLIC "-//W3C//DTD SVG 20010904//EN"
 "http://www.w3.org/TR/2001/REC-SVG-20010904/DTD/svg10.dtd">
<svg version="1.0" xmlns="http://www.w3.org/2000/svg"
 width="1606.000000pt" height="94.000000pt" viewBox="0 0 1606.000000 94.000000"
 preserveAspectRatio="xMidYMid meet">
<metadata>
Created by potrace 1.16, written by Peter Selinger 2001-2019
</metadata>
<g transform="translate(0.000000,94.000000) scale(0.100000,-0.100000)"
fill="#000000" stroke="none">
<path d="M349 523 c0 -322 -8 -353 -86 -353 -46 0 -83 37 -83 85 0 39 -2 40
-84 29 -45 -7 -46 -7 -46 -43 0 -46 31 -113 65 -143 79 -69 230 -63 305 12 54
54 60 91 60 384 l0 256 -65 0 -65 0 -1 -227z"/>
<path d="M1150 405 l0 -345 65 0 65 0 0 30 0 30 46 -33 c40 -28 54 -32 109
-32 54 0 69 4 106 30 26 18 53 50 68 80 23 43 26 62 26 150 0 84 -4 107 -22
141 -59 110 -185 145 -283 80 l-40 -26 0 120 0 120 -70 0 -70 0 0 -345z m309
39 c74 -62 63 -247 -16 -283 -101 -46 -183 66 -152 208 20 93 103 130 168 75z"/>
<path d="M2810 406 l0 -346 70 0 70 0 0 129 0 129 118 4 c118 4 159 15 206 57
35 31 58 90 58 155 0 71 -13 110 -50 149 -54 58 -71 61 -279 65 l-193 4 0
-346z m354 195 c35 -33 36 -89 2 -127 -22 -26 -29 -28 -120 -32 l-96 -4 0 97
0 97 94 -4 c84 -3 97 -6 120 -27z"/>
<path d="M3450 690 l0 -60 65 0 65 0 0 60 0 60 -65 0 -65 0 0 -60z"/>
<path d="M742 559 c-19 -6 -53 -30 -77 -54 -57 -56 -80 -130 -72 -226 7 -79
32 -134 81 -177 97 -85 284 -60 344 46 12 22 22 42 22 45 0 4 -17 9 -37 12
-21 4 -50 9 -65 11 -21 4 -28 2 -28 -9 0 -22 -48 -57 -77 -57 -31 0 -80 25
-91 48 -5 9 -12 29 -16 45 l-6 27 165 0 165 0 0 43 c0 181 -142 294 -308 246z
m129 -99 c22 -12 49 -61 49 -90 0 -19 -6 -20 -95 -20 l-95 0 0 31 c0 64 82
110 141 79z"/>
<path d="M1851 559 c-52 -16 -80 -38 -102 -81 -11 -22 -19 -42 -16 -44 2 -2
28 -8 58 -14 40 -8 55 -7 58 1 10 30 43 49 84 49 55 0 89 -23 85 -58 -3 -24
-10 -28 -63 -40 -174 -39 -219 -65 -235 -137 -36 -156 164 -249 287 -133 24
22 22 24 38 -27 3 -11 20 -15 66 -15 59 0 61 1 54 22 -4 13 -11 106 -14 208
-7 205 -12 225 -73 256 -38 20 -178 28 -227 13z m169 -308 c0 -76 -84 -127
-145 -87 -31 21 -35 70 -5 86 16 9 117 36 143 39 4 1 7 -17 7 -38z"/>
<path d="M2407 557 c-52 -16 -103 -60 -129 -110 -19 -35 -22 -58 -22 -137 0
-109 18 -157 79 -208 110 -90 295 -60 355 58 28 55 26 68 -12 75 -74 13 -93
11 -96 -12 -6 -38 -47 -73 -86 -73 -94 0 -142 137 -94 263 29 76 149 73 173
-3 5 -17 13 -20 33 -16 15 3 43 8 64 12 34 6 36 7 27 33 -36 104 -167 157
-292 118z"/>
<path d="M3797 556 c-74 -27 -112 -83 -104 -153 8 -77 52 -109 193 -144 98
-24 114 -33 114 -60 0 -67 -169 -62 -186 6 -3 14 -9 25 -12 25 -3 0 -33 -5
-68 -11 l-62 -11 10 -28 c47 -136 300 -177 407 -66 29 29 35 45 39 91 8 94
-31 129 -182 165 -99 24 -136 42 -136 65 0 31 94 46 144 23 14 -6 28 -20 32
-30 4 -15 12 -18 32 -14 15 3 44 8 65 12 l37 6 -22 41 c-28 49 -62 75 -114 87
-56 14 -143 11 -187 -4z"/>
<path d="M3450 310 l0 -250 65 0 65 0 0 250 0 250 -65 0 -65 0 0 -250z"/>
</g>
</svg>
